<?xml version="1.0" encoding="iso-8859-1"?>
<!-- Generator: Adobe Illustrator 19.1.0, SVG Export Plug-In . SVG Version: 6.00 Build 0)  -->
<svg version="1.1" id="Capa_1" xmlns="http://www.w3.org/2000/svg" xmlns:xlink="http://www.w3.org/1999/xlink" x="0px" y="0px"
	 viewBox="0 0 320.937 320.937" style="enable-background:new 0 0 320.937 320.937;" xml:space="preserve">
<g>
	<path d="M305.912,188.117c0.771-6.093,1.176-12.243,1.176-18.413c0-31.363-10.019-60.367-26.858-84.23
		c3.201-4.383,5-9.602,4.987-15.135c-0.013-6.864-2.699-13.316-7.564-18.169C246.329,20.98,204.748,3.801,160.569,3.801
		c-44.319,0-85.991,17.269-117.328,48.613c-9.023,9.03-9.839,23.117-2.603,33.156c-16.8,23.844-26.787,52.809-26.787,84.127
		c0,6.163,0.405,12.307,1.176,18.4c-11.838,15.174-17.449,35.007-14.043,55.2c5.701,33.831,34.531,58.426,68.735,58.863
		c5.726,9.075,15.739,14.975,27.063,14.975c1.78,0,3.593-0.148,5.36-0.443c17.475-2.944,29.3-19.557,26.363-37.031L109.56,167.165
		c-2.609-15.527-15.926-26.793-31.659-26.793c-1.787,0-3.593,0.148-5.366,0.45c-8.464,1.427-15.868,6.061-20.842,13.053
		c-2.474,3.477-4.19,7.327-5.129,11.363c-7.237,2.622-13.843,6.305-19.653,10.9c-0.103-2.147-0.199-4.287-0.199-6.433
		c0-28.207,8.953-54.262,23.934-75.85c3.348,1.555,6.986,2.449,10.791,2.449c6.864,0,13.323-2.674,18.182-7.532
		c21.62-21.639,50.374-33.555,80.965-33.555c30.489,0,59.185,11.858,80.792,33.387c4.852,4.827,11.292,7.494,18.137,7.494
		c3.766,0,7.372-0.868,10.694-2.397c15.045,21.613,24.03,47.732,24.03,76.004c0,2.153-0.096,4.3-0.199,6.44
		c-5.797-4.589-12.41-8.278-19.647-10.9c-0.938-4.036-2.661-7.892-5.135-11.369c-4.974-6.992-12.378-11.626-20.842-13.053
		c-1.774-0.296-3.586-0.45-5.373-0.45c-15.726,0-29.043,11.266-31.652,26.793L192.44,279.66
		c-2.937,17.475,8.888,34.088,26.356,37.031c1.767,0.296,3.58,0.443,5.36,0.443c11.337,0,21.344-5.9,27.07-14.975
		c34.197-0.431,63.034-25.039,68.729-58.863C323.355,223.111,317.744,203.284,305.912,188.117z M74.662,153.495
		c1.086-0.186,2.172-0.276,3.233-0.276c9.435,0,17.417,6.767,18.978,16.08l18.946,112.495c1.761,10.489-5.334,20.457-15.816,22.218
		c-8.638,1.459-16.633-3.072-20.315-10.334l-0.302-0.662c-0.36-0.778-0.623-1.478-0.868-2.172c-0.276-0.868-0.566-1.729-0.72-2.641
		L58.852,175.7c0-0.006,0-0.013,0-0.019c-0.154-0.925-0.161-1.832-0.186-2.751c0.006-0.713,0.026-1.459,0.109-2.294l0.064-0.649
		C59.932,161.831,66.134,154.935,74.662,153.495z M46.39,179.106l9.261,54.982l9.261,54.982
		c-25.765-2.519-46.871-21.883-51.254-47.906c-2.044-12.147-0.077-24.126,4.942-34.563c2.905,11.202,7.095,22.057,12.552,32.25
		c1.684,3.117,5.566,4.293,8.702,2.629c3.123-1.684,4.306-5.572,2.629-8.702c-6.819-12.712-11.459-26.543-13.863-40.804
		C33.601,186.677,39.571,182.262,46.39,179.106z M250.442,79.497c-24.036-23.946-55.958-37.134-89.866-37.134
		c-34.024,0-66.01,13.252-90.053,37.321c-4.859,4.859-13.323,4.859-18.182,0c-5.007-5.013-5.013-13.162-0.006-18.175
		c28.908-28.921,67.347-44.853,108.241-44.853c40.759,0,79.121,15.849,108.009,44.622c2.436,2.423,3.779,5.649,3.785,9.088
		c0.006,3.438-1.324,6.665-3.753,9.1C263.778,84.323,255.307,84.349,250.442,79.497z M220.924,304.012
		c-10.482-1.761-17.571-11.729-15.81-22.218l18.946-112.495c1.562-9.312,9.544-16.08,18.972-16.08c1.067,0,2.153,0.09,3.239,0.276
		c8.528,1.44,14.724,8.323,15.816,16.472l0.071,0.668c0.084,0.835,0.109,1.575,0.109,2.294c-0.019,0.919-0.026,1.832-0.18,2.77
		l-18.946,112.489c-0.006,0.026-0.019,0.058-0.019,0.084c-0.154,0.887-0.431,1.716-0.694,2.545
		c-0.244,0.694-0.514,1.408-0.874,2.192l-0.36,0.771C237.492,300.991,229.549,305.464,220.924,304.012z M307.275,241.164
		c-4.383,26.016-25.489,45.393-51.248,47.899l9.261-54.975l9.255-54.975c6.819,3.149,12.789,7.571,17.764,12.854
		c-2.41,14.313-7.082,28.195-13.933,40.958c-1.684,3.123-0.508,7.025,2.622,8.702c0.964,0.521,2.012,0.765,3.033,0.765
		c2.288,0,4.505-1.221,5.668-3.387c5.501-10.244,9.724-21.151,12.642-32.404C307.352,217.037,309.319,229.017,307.275,241.164z"/>
</g>
<g>
</g>
<g>
</g>
<g>
</g>
<g>
</g>
<g>
</g>
<g>
</g>
<g>
</g>
<g>
</g>
<g>
</g>
<g>
</g>
<g>
</g>
<g>
</g>
<g>
</g>
<g>
</g>
<g>
</g>
</svg>
